<?xml version="1.0" encoding="utf-8"?>
<!-- Generator: Adobe Illustrator 25.4.1, SVG Export Plug-In . SVG Version: 6.00 Build 0)  -->
<svg version="1.1" id="レイヤー_1" xmlns="http://www.w3.org/2000/svg" xmlns:xlink="http://www.w3.org/1999/xlink" x="0px"
	 y="0px" viewBox="0 0 1024 1024" style="enable-background:new 0 0 1024 1024;" xml:space="preserve">
<style type="text/css">
	.st0{fill:#CDDB1E;}
	.st1{fill:#F8B310;}
	.st2{fill:#F08208;}
	.st3{fill:#EA5527;}
	.st4{fill:#E61258;}
	.st5{fill:#BB0383;}
	.st6{fill:#86328E;}
	.st7{fill:#4D4B9D;}
	.st8{fill:#007CC4;}
	.st9{fill:#00B2DE;}
	.st10{fill:#C26C0C;}
	.st11{fill:#BB4623;}
	.st12{fill:#B5114B;}
	.st13{fill:#9D0666;}
	.st14{fill:#6D276E;}
	.st15{fill:#3F3E7C;}
	.st16{fill:#FFFFFF;}
	.st17{fill:#444444;}
</style>
<g>
	<g>
		<path class="st0" d="M314,206c-117.7,0-214.6,69.2-229,182.8l301.5-174.1C366.6,209.5,343.2,206,314,206z"/>
		<path class="st1" d="M386.6,214.6L85,388.7c-1.2,9.5-2,19.2-2,29.4c0,13.9,1.4,27.1,3.6,39.8l374.6-216.3
			C439.3,233.5,416.8,222.3,386.6,214.6z"/>
		<path class="st2" d="M512,251.9c-18.7,0-34.6-4.3-50.7-10.3L86.6,457.9c3.7,20.9,10.2,40.1,19.1,57.5L615.8,221
			C576.3,234.4,549.8,251.9,512,251.9z"/>
		<path class="st3" d="M710,206c-40.3,0-69.7,6.7-94.2,15L105.8,515.4c9.5,18.5,21.6,34.9,36.1,49.3l614.8-355
			C741.6,207.2,726,206,710,206z"/>
		<path class="st4" d="M756.7,209.7l-614.8,355c15.3,15.2,33.1,27.9,52.9,38L832,234.9C809.2,222.9,783.9,214.2,756.7,209.7z"/>
		<path class="st5" d="M832,234.9L194.8,602.8c23.9,12.2,50.5,20.5,79,24.5l611.3-352.9C869.8,258.6,851.9,245.4,832,234.9z"/>
		<path class="st6" d="M885.1,274.3L273.7,627.3c13.1,1.8,26.5,3,40.3,3c48.3,0,81-9.7,108.2-20.1l497.2-287.1
			C910.4,304.9,898.9,288.6,885.1,274.3z"/>
		<path class="st7" d="M919.4,323.1L422.2,610.1c32.2-12.4,56.6-25.8,89.8-25.8c20.5,0,37.7,5.2,55.5,12.1L938,382.5
			C934.6,360.9,928.4,341.1,919.4,323.1z"/>
		<path class="st8" d="M938,382.5L567.5,596.4c21.4,8.3,43.6,19,73.6,26.1l297.4-171.7c1.5-10.6,2.5-21.4,2.5-32.7
			C941,405.7,939.8,393.9,938,382.5z"/>
		<path class="st9" d="M710,630.2c116.5,0,212.7-67.8,228.5-179.5L641,622.5C660.2,627.1,682.6,630.2,710,630.2z"/>
	</g>
	<g>
		<path class="st10" d="M512,251.9c-61.4,0-113.7,44.3-134.5,106.7l173.7-100.3C538.7,254.2,525.6,251.9,512,251.9z"/>
		<path class="st11" d="M551.2,258.3L377.5,358.6c-6.2,18.5-9.7,38.5-9.7,59.5c0,5.3,0.3,10.6,0.7,15.8l240.3-138.7
			C592.5,278.1,572.9,265.4,551.2,258.3z"/>
		<path class="st12" d="M608.8,295.1L368.5,433.9c1.7,21.4,7.1,41.6,15.2,59.8l257.7-148.8C633.3,326,622.2,309.2,608.8,295.1z"/>
		<path class="st13" d="M641.3,344.9L383.7,493.7c8.6,19.2,20.2,36.3,34.3,50.3l237.7-137.2C654.4,384.7,649.4,363.8,641.3,344.9z"
			/>
		<path class="st14" d="M655.7,406.7L418,544c16.6,16.4,36.4,28.5,58.2,35l169.1-97.6c7-19.5,10.9-40.8,10.9-63.2
			C656.2,414.3,655.9,410.5,655.7,406.7z"/>
		<path class="st15" d="M512,584.3c60.2,0,111.8-42.6,133.3-103L476.2,579C487.7,582.3,499.6,584.3,512,584.3z"/>
	</g>
	<g>
		<path class="st16" d="M231.2,498.3h-41.7V373.2H155v-35.3h110.7v35.3h-34.5V498.3z"/>
		<path class="st16" d="M471.5,415.1c0,51.9-37.2,88.5-88.7,88.5c-51.5,0-88.7-36.6-88.7-88.5c0-48.5,42.6-82.6,88.7-82.6
			C428.9,332.5,471.5,366.6,471.5,415.1z"/>
		<path class="st16" d="M672.1,408.7c-0.4,23.4-2.1,43.4-16.4,63.4c-15.7,21.9-39.4,31.5-66.2,31.5c-50.4,0-85.6-34.3-85.6-84.7
			c0-52.1,35.3-86.4,87-86.4c33,0,58.5,14.9,72.3,44.9L623.8,394c-5.7-15.3-17.9-25.5-34.7-25.5c-27.4,0-41.7,26.2-41.7,50.7
			c0,24.9,14.9,50.2,42.4,50.2c18.1,0,31.9-9.4,33.6-27.9h-34.1v-32.8H672.1z"/>
		<path class="st16" d="M882,415.1c0,51.9-37.2,88.5-88.7,88.5c-51.5,0-88.7-36.6-88.7-88.5c0-48.5,42.6-82.6,88.7-82.6
			C839.4,332.5,882,366.6,882,415.1z"/>
	</g>
	<g>
		<path class="st17" d="M354.5,657.4h59.2c44.7,0,81.6,35.2,81.6,80.3S458.2,818,413.7,818h-59.2V657.4z M396.2,782.7h9.4
			c24.9,0,46.2-13.6,46.2-45c0-28.8-19-45-45.8-45h-9.8V782.7z"/>
		<path class="st17" d="M493.8,657.4h51.3l24.5,41.5l24.5-41.5h51.3l-51.3,74.8l59.4,85.9h-50.3l-33.7-52.4L532.8,818h-50.5
			l62.9-85.9L493.8,657.4z"/>
	</g>
</g>
</svg>
