<?xml version="1.0" encoding="utf-8"?>
<!-- Generator: Adobe Illustrator 25.4.1, SVG Export Plug-In . SVG Version: 6.00 Build 0)  -->
<svg version="1.1" id="レイヤー_1" xmlns="http://www.w3.org/2000/svg" xmlns:xlink="http://www.w3.org/1999/xlink" x="0px"
	 y="0px" viewBox="0 0 1024 1024" style="enable-background:new 0 0 1024 1024;" xml:space="preserve">
<style type="text/css">
	.st0{fill:#CDDB1E;}
	.st1{fill:#F8B310;}
	.st2{fill:#F08208;}
	.st3{fill:#EA5527;}
	.st4{fill:#E61258;}
	.st5{fill:#BB0383;}
	.st6{fill:#86328E;}
	.st7{fill:#4D4B9D;}
	.st8{fill:#007CC4;}
	.st9{fill:#00B2DE;}
	.st10{fill:#C26C0C;}
	.st11{fill:#BB4623;}
	.st12{fill:#B5114B;}
	.st13{fill:#9D0666;}
	.st14{fill:#6D276E;}
	.st15{fill:#3F3E7C;}
	.st16{fill:#FFFFFF;}
	.st17{fill:#444444;}
</style>
<g>
	<g>
		<path class="st0" d="M213.2,338.4c-96.3,0-175.6,56.6-187.3,149.5l246.6-142.4C256.2,341.4,237.1,338.4,213.2,338.4z"/>
		<path class="st1" d="M272.6,345.5L25.9,487.9c-1,7.8-1.7,15.7-1.7,24c0,11.4,1.1,22.1,3,32.6l306.4-176.9
			C315.7,360.9,297.3,351.8,272.6,345.5z"/>
		<path class="st2" d="M375.2,376c-15.3,0-28.3-3.5-41.5-8.4L27.2,544.5c3,17.1,8.3,32.8,15.6,47.1l417.2-240.9
			C427.8,361.7,406.1,376,375.2,376z"/>
		<path class="st3" d="M537.1,338.4c-33,0-57,5.5-77,12.3L42.9,591.6c7.7,15.1,17.7,28.6,29.5,40.3l502.9-290.4
			C563,339.5,550.2,338.4,537.1,338.4z"/>
		<path class="st4" d="M575.3,341.5L72.4,631.9c12.5,12.4,27.1,22.8,43.3,31.1l521.2-300.9C618.3,352.2,597.6,345.2,575.3,341.5z"/>
		<path class="st5" d="M636.9,362.1L115.7,663c19.5,10,41.3,16.8,64.6,20.1l500-288.7C667.8,381.5,653.2,370.7,636.9,362.1z"/>
		<path class="st6" d="M680.3,394.3L180.3,683c10.7,1.5,21.7,2.4,32.9,2.4c39.5,0,66.3-7.9,88.5-16.4l406.7-234.8
			C701,419.4,691.6,406,680.3,394.3z"/>
		<path class="st7" d="M708.4,434.2L301.7,669c26.3-10.1,46.3-21.1,73.4-21.1c16.8,0,30.9,4.3,45.4,9.9l303.1-175
			C720.9,465.2,715.7,449,708.4,434.2z"/>
		<path class="st8" d="M723.6,482.8l-303.1,175c17.5,6.8,35.7,15.5,60.2,21.4L724,538.7c1.2-8.6,2.1-17.5,2.1-26.7
			C726,501.8,725.1,492.2,723.6,482.8z"/>
		<path class="st9" d="M537.1,685.5c95.3,0,174-55.5,186.9-146.8L480.7,679.1C496.4,682.9,514.7,685.5,537.1,685.5z"/>
	</g>
	<g>
		<path class="st10" d="M375.2,376c-50.2,0-93,36.3-110,87.3l142.1-82C397,377.9,386.3,376,375.2,376z"/>
		<path class="st11" d="M407.2,381.2l-142.1,82c-5,15.1-7.9,31.5-7.9,48.7c0,4.4,0.2,8.7,0.6,12.9l196.5-113.5
			C441,397.5,425,387,407.2,381.2z"/>
		<path class="st12" d="M454.3,411.4L257.8,524.8c1.4,17.5,5.8,34,12.4,48.9L481,452.1C474.3,436.6,465.3,422.8,454.3,411.4z"/>
		<path class="st13" d="M481,452.1L270.2,573.8c7,15.7,16.6,29.7,28.1,41.1l194.4-112.3C491.6,484.6,487.5,467.5,481,452.1z"/>
		<path class="st14" d="M492.7,502.7L298.3,614.9c13.5,13.5,29.8,23.3,47.6,28.6l138.3-79.9c5.7-15.9,8.9-33.4,8.9-51.7
			C493.1,508.8,492.9,505.7,492.7,502.7z"/>
		<path class="st15" d="M375.2,647.9c49.3,0,91.4-34.8,109.1-84.2l-138.3,79.9C355.3,646.3,365,647.9,375.2,647.9z"/>
	</g>
	<g>
		<path class="st16" d="M145.5,577.6h-34.1V475.2H83.2v-28.9h90.5v28.9h-28.2V577.6z"/>
		<path class="st16" d="M342,509.5c0,42.5-30.5,72.4-72.6,72.4c-42.1,0-72.6-29.9-72.6-72.4c0-39.7,34.8-67.5,72.6-67.5
			C307.2,442,342,469.8,342,509.5z"/>
		<path class="st16" d="M506.2,504.3c-0.3,19.2-1.7,35.5-13.4,51.9c-12.9,17.9-32.2,25.8-54.1,25.8c-41.3,0-70-28-70-69.3
			c0-42.7,28.9-70.7,71.2-70.7c27,0,47.9,12.2,59.2,36.7l-32.4,13.6c-4.7-12.5-14.6-20.9-28.4-20.9c-22.5,0-34.1,21.4-34.1,41.4
			c0,20.4,12.2,41.1,34.6,41.1c14.8,0,26.1-7.7,27.5-22.8h-27.9v-26.8H506.2z"/>
		<path class="st16" d="M677.8,509.5c0,42.5-30.5,72.4-72.6,72.4c-42.1,0-72.6-29.9-72.6-72.4c0-39.7,34.8-67.5,72.6-67.5
			C643,442,677.8,469.8,677.8,509.5z"/>
	</g>
	<g>
		<path class="st17" d="M754.4,445.7h48.4c36.6,0,66.7,28.8,66.7,65.7s-30.3,65.7-66.7,65.7h-48.4V445.7z M788.5,548.2h7.7
			c20.4,0,37.8-11.2,37.8-36.8c0-23.5-15.5-36.8-37.5-36.8h-8V548.2z"/>
		<path class="st17" d="M868.3,445.7h42l20,34l20-34h42l-42,61.2l48.6,70.2h-41.1l-27.5-42.9l-30.1,42.9h-41.3l51.4-70.2
			L868.3,445.7z"/>
	</g>
</g>
</svg>
